<svg width="403" height="606" viewBox="0 0 403 606" fill="none" xmlns="http://www.w3.org/2000/svg">
  <ellipse cx="201.5" cy="589" rx="201.5" ry="17" fill="#CFBDBD"/>
  <path opacity="0.1" d="M218.448 287.037L215.077 308.946L218.448 322.429V346.023L208.336 389.841L218.448 401.638L230.245 416.806" fill="black"/>
  <path d="M161.837 0.0790005H190.056C208.608 0.0790005 223.648 18.8388 223.648 41.9801V119.079H128.245V41.9802C128.245 30.8673 131.784 20.2096 138.084 12.3516C144.384 4.49357 152.928 0.0790005 161.837 0.0790005Z" fill="#3F2615"/>
  <path d="M190.808 529.161C190.808 529.161 187.808 548.161 182.808 551.161C177.808 554.161 208.808 561.161 208.808 561.161L213.808 531.161L190.808 529.161Z" fill="#FFD7D7"/>
  <path d="M227.808 313.161L238.808 326.161L233.808 371.161L229.808 460.161C229.808 460.161 237.808 537.161 229.808 539.161C221.808 541.161 185.808 540.161 186.808 535.161C187.808 530.161 188.808 526.161 190.808 519.161C192.808 512.161 188.808 487.161 188.808 487.161L193.808 459.161L175.808 338.161L227.808 313.161Z" fill="#A2C6FF"/>
  <path d="M191.808 549.161C191.808 549.161 180.808 547.161 179.808 549.161C178.808 551.161 159.808 572.161 156.808 572.161C153.808 572.161 131.808 592.161 154.808 593.161C177.808 594.161 215.808 576.161 215.808 576.161C215.808 576.161 210.216 550.714 210.512 551.937C210.808 553.161 191.808 554.161 191.808 549.161Z" fill="#FFFBE7"/>
  <path d="M219.808 526.161L205.308 539.809C205.308 539.809 223.808 568.161 223.808 571.161C223.808 574.161 224.808 599.161 234.808 595.161C244.808 591.161 245.808 551.161 245.808 551.161C245.808 551.161 244.808 510.161 238.808 507.161C232.808 504.161 219.657 505.108 219.657 505.108C219.657 505.108 227.808 525.161 219.808 526.161Z" fill="#FFFBE7"/>
  <path d="M179.808 503.161C179.808 503.161 207.808 534.161 208.808 537.161C209.808 540.161 224.808 537.161 224.808 537.161L230.808 517.161L225.808 510.161L197.808 487.161L179.808 503.161Z" fill="#FFD7D7"/>
  <path d="M136.808 224.161C136.808 224.161 131.808 240.161 130.808 244.161C129.808 248.161 123.808 259.161 123.808 276.161C123.808 293.161 125.808 313.161 123.808 315.161C121.808 317.161 89.8079 429.161 103.808 441.161C117.808 453.161 163.808 493.161 166.808 498.161C169.808 503.161 170.808 515.161 176.808 513.161C182.808 511.161 205.808 491.161 206.808 487.161C207.808 483.161 193.808 476.161 193.808 476.161C193.808 476.161 165.808 435.161 158.808 436.161C151.808 437.161 152.808 431.161 153.808 428.161C154.808 425.161 156.808 423.161 153.808 423.161C150.808 423.161 152.808 415.161 153.808 411.161C154.808 407.161 177.808 353.161 177.808 353.161L238.808 326.161C238.808 326.161 235.808 253.161 213.808 233.161L208.808 221.161C208.808 221.161 152.808 217.161 136.808 224.161Z" fill="#A2C6FF"/>
  <path d="M161.808 66.1606C161.808 66.1606 166.808 101.161 154.808 103.161C142.808 105.161 132.808 104.161 132.808 105.161C132.808 106.161 162.808 137.161 162.808 137.161L190.808 135.161L215.808 108.161C215.808 108.161 192.808 104.161 192.808 90.1606C192.808 76.1606 191.808 66.1606 191.808 66.1606H161.808Z" fill="#F4CECE"/>
  <ellipse cx="177.308" cy="52.6606" rx="31" ry="34" fill="#FFD7D7"/>
  <path d="M149.808 100.161C149.808 100.161 110.808 105.161 107.808 118.161C104.808 131.161 127.808 212.161 130.808 219.161C133.808 226.161 132.808 231.161 132.808 231.161C141.962 224.314 153.631 221.762 164.808 224.161C183.808 228.161 210.808 226.161 210.808 226.161C210.808 226.161 219.808 189.161 221.808 185.161C223.808 181.161 231.808 159.161 231.808 153.161C231.808 147.161 243.808 122.161 243.808 122.161C243.808 122.161 237.808 104.161 215.808 105.161C215.808 105.161 206.212 100.866 203.51 104.013C200.808 107.161 185.808 121.161 166.808 115.161C147.808 109.161 149.808 100.161 149.808 100.161Z" fill="#FA9898"/>
  <path d="M118.808 117.161H107.808L101.808 196.161C101.808 196.161 123.808 202.161 126.808 198.161C129.808 194.161 118.808 117.161 118.808 117.161Z" fill="#FA9898"/>
  <path d="M224.808 117.161L243.808 122.161C243.808 122.161 257.808 173.161 258.808 174.161C259.808 175.161 260.808 181.161 260.808 181.161C260.808 181.161 260.808 182.161 262.808 185.161C264.808 188.161 267.808 186.161 265.808 190.161C263.808 194.161 260.808 192.161 262.808 196.161C264.808 200.161 263.808 211.161 263.808 211.161C263.808 211.161 258.808 192.161 240.808 197.161L228.808 143.161L224.808 117.161Z" fill="#FA9898"/>
  <path d="M104.808 188.161L101.808 196.161C101.808 196.161 99.8079 222.161 111.808 221.161C123.808 220.161 130.808 205.161 130.808 205.161C130.808 205.161 123.808 186.161 115.808 188.161C107.808 190.161 104.808 188.161 104.808 188.161Z" fill="#FA9898"/>
  <path d="M249.308 180.661L239.308 196.661C239.308 196.661 262.308 199.661 264.308 204.661C266.308 209.661 255.308 178.661 255.308 178.661L249.308 180.661Z" fill="#FA9898"/>
  <path d="M205.731 37.5109C205.731 37.5109 192.411 22.1966 184.35 22.1966C176.288 22.1966 140.294 57.9647 140.294 57.9647L142.438 17.057H209.69L208.308 28.017L205.731 37.5109Z" fill="#3F2615"/>
  <ellipse cx="145.224" cy="54.2484" rx="2.42549" ry="6.46798" transform="rotate(-16.1601 145.224 54.2484)" fill="#FFD7D7"/>
  <ellipse cx="209.861" cy="54.2484" rx="6.46798" ry="2.42549" transform="rotate(-73.8399 209.861 54.2484)" fill="#FFD7D7"/>
  <circle cx="204" cy="169.079" r="18" fill="#E1A149"/>
  <circle cx="204" cy="169.079" r="16.2149" fill="#FEC27D"/>
  <path opacity="0.1" d="M203.285 159.913C203.285 159.913 199.154 157.284 195.21 159.913C193.986 160.741 193.131 162.013 192.826 163.46C192.291 165.81 192.861 168.275 194.373 170.152L203.294 181.421C203.918 182.222 204.945 182.596 205.938 182.385L205.997 182.371C206.709 182.196 207.318 181.734 207.678 181.095L213.883 170.199C215.03 168.215 215.501 165.911 215.223 163.635C215.092 161.057 213.298 158.863 210.797 158.223C210.797 158.223 207.229 156.72 203.285 159.913Z" fill="black"/>
  <path d="M203.327 160.547C203.327 160.547 199.452 158.081 195.752 160.547C194.604 161.325 193.802 162.518 193.515 163.875C193.014 166.079 193.548 168.392 194.967 170.152L203.336 180.724C203.921 181.475 204.884 181.826 205.816 181.628L205.871 181.615C206.539 181.45 207.11 181.017 207.448 180.417L213.268 170.196C214.345 168.335 214.786 166.174 214.526 164.039C214.403 161.62 212.72 159.563 210.373 158.962C210.373 158.962 207.026 157.553 203.327 160.547Z" fill="#890309"/>
  <path opacity="0.1" d="M203.478 164.776C202.345 164.09 200.925 164.09 199.792 164.776C199.234 165.154 198.843 165.735 198.704 166.395C198.46 167.467 198.72 168.593 199.41 169.449C199.41 169.449 204.237 175.133 204.689 175.032L204.715 175.026C205.041 174.948 208.314 169.471 208.314 169.471C208.838 168.565 209.053 167.513 208.926 166.475C208.866 165.298 208.048 164.297 206.906 164.005C205.708 163.629 204.4 163.923 203.478 164.776Z" fill="black"/>
  <circle cx="188" cy="179.079" r="18" fill="#E1A149"/>
  <circle cx="188" cy="179.079" r="16.2149" fill="#FEC27D"/>
  <path opacity="0.1" d="M187.285 169.913C187.285 169.913 183.154 167.284 179.21 169.913C177.986 170.741 177.131 172.013 176.826 173.46C176.291 175.81 176.861 178.275 178.373 180.152L187.294 191.421C187.918 192.222 188.945 192.596 189.938 192.385L189.997 192.371C190.709 192.196 191.318 191.734 191.678 191.095L197.883 180.199C199.03 178.215 199.501 175.911 199.223 173.635C199.092 171.057 197.298 168.863 194.797 168.223C194.797 168.223 191.229 166.72 187.285 169.913Z" fill="black"/>
  <path d="M187.327 170.547C187.327 170.547 183.452 168.081 179.752 170.547C178.604 171.325 177.802 172.518 177.515 173.875C177.014 176.079 177.548 178.392 178.967 180.152L187.336 190.724C187.921 191.475 188.884 191.826 189.816 191.628L189.871 191.615C190.539 191.45 191.11 191.017 191.448 190.417L197.268 180.196C198.345 178.335 198.786 176.174 198.526 174.039C198.403 171.62 196.72 169.563 194.373 168.962C194.373 168.962 191.026 167.553 187.327 170.547Z" fill="#890309"/>
  <path opacity="0.1" d="M187.478 174.776C186.345 174.09 184.925 174.09 183.792 174.776C183.234 175.154 182.843 175.735 182.704 176.395C182.46 177.467 182.72 178.593 183.41 179.449C183.41 179.449 188.237 185.133 188.689 185.032L188.715 185.026C189.041 184.948 192.314 179.471 192.314 179.471C192.838 178.565 193.053 177.513 192.926 176.475C192.866 175.298 192.048 174.297 190.906 174.005C189.708 173.629 188.4 173.923 187.478 174.776Z" fill="black"/>
  <path d="M174.274 134.077C173.836 133.354 172.304 133.373 172.304 133.373C170.91 135.444 167.559 133.244 167.559 133.244C165.07 134.358 163.551 130.809 163.551 130.809C160.202 130.308 160.719 126.79 160.719 126.79C159.053 126.456 159.52 123.443 159.52 123.443C159.52 123.443 160.445 122.685 159.99 122.13C159.718 121.481 159.621 120.772 159.708 120.074C149.488 116.963 138.473 121.304 133.122 130.549C127.771 139.795 129.495 151.508 137.282 158.82C145.07 166.132 156.869 167.114 165.759 161.191C174.649 155.268 178.287 144.001 174.539 133.998C174.421 134.131 174.329 134.168 174.274 134.077Z" fill="#E1A149"/>
  <path opacity="0.1" d="M174.274 134.077C173.836 133.354 172.304 133.373 172.304 133.373C170.91 135.444 167.559 133.244 167.559 133.244C165.07 134.358 163.551 130.809 163.551 130.809C160.202 130.308 160.719 126.79 160.719 126.79C159.053 126.456 159.52 123.443 159.52 123.443C159.52 123.443 160.445 122.685 159.99 122.13C159.718 121.481 159.621 120.772 159.708 120.074C149.488 116.963 138.473 121.304 133.122 130.549C127.771 139.795 129.495 151.508 137.282 158.82C145.07 166.132 156.869 167.114 165.759 161.191C174.649 155.268 178.287 144.001 174.539 133.998C174.421 134.131 174.329 134.168 174.274 134.077Z" fill="#F6CC69"/>
  <path d="M172.911 133.987C172.494 133.299 171.038 133.317 171.038 133.317C169.712 135.287 166.524 133.194 166.524 133.194C164.157 134.253 162.713 130.878 162.713 130.878C159.527 130.402 160.019 127.056 160.019 127.056C158.435 126.738 158.879 123.873 158.879 123.873C158.879 123.873 159.759 123.152 159.326 122.624C159.068 122.007 158.975 121.333 159.058 120.669C149.339 117.71 138.862 121.838 133.773 130.631C128.684 139.424 130.323 150.564 137.73 157.518C145.137 164.472 156.358 165.406 164.813 159.773C173.268 154.14 176.727 143.425 173.163 133.911C173.05 134.038 172.963 134.073 172.911 133.987Z" fill="#FEC27D"/>
  <path d="M150.067 132.654C150.067 132.654 146.294 130.253 142.694 132.654C141.576 133.41 140.795 134.571 140.517 135.892C140.028 138.038 140.549 140.289 141.929 142.002L150.075 152.291C150.645 153.023 151.582 153.364 152.489 153.171L152.543 153.159C153.193 152.999 153.749 152.577 154.078 151.993L159.742 142.045C160.791 140.234 161.22 138.13 160.966 136.052C160.847 133.698 159.209 131.695 156.925 131.11C156.925 131.11 153.667 129.739 150.067 132.654Z" fill="#FFCAF8"/>
  <path opacity="0.1" d="M150.067 132.654C150.067 132.654 146.294 130.253 142.694 132.654C141.576 133.41 140.795 134.571 140.517 135.892C140.028 138.038 140.549 140.289 141.929 142.002L150.075 152.291C150.645 153.023 151.582 153.364 152.489 153.171L152.543 153.159C153.193 152.999 153.749 152.577 154.078 151.993L159.742 142.045C160.791 140.234 161.22 138.13 160.966 136.052C160.847 133.698 159.209 131.695 156.925 131.11C156.925 131.11 153.667 129.739 150.067 132.654Z" fill="black"/>
  <path d="M150.105 133.233C150.105 133.233 146.566 130.981 143.189 133.233C142.14 133.943 141.408 135.032 141.147 136.271C140.688 138.284 141.177 140.395 142.472 142.003L150.113 151.655C150.647 152.341 151.527 152.661 152.378 152.48L152.428 152.468C153.038 152.318 153.559 151.922 153.868 151.375L159.182 142.043C160.165 140.343 160.568 138.37 160.33 136.421C160.217 134.212 158.681 132.334 156.539 131.785C156.539 131.785 153.483 130.499 150.105 133.233Z" fill="#890309"/>
  <path opacity="0.1" d="M150.243 137.094C149.208 136.467 147.912 136.467 146.878 137.094C146.367 137.439 146.011 137.969 145.884 138.572C145.661 139.551 145.899 140.579 146.529 141.361C146.529 141.361 150.936 146.55 151.348 146.458L151.373 146.452C152.556 144.82 153.652 143.127 154.659 141.38C155.137 140.553 155.333 139.593 155.217 138.645C155.163 137.57 154.415 136.656 153.373 136.39C152.278 136.046 151.084 136.315 150.243 137.094V137.094Z" fill="black"/>
  <path opacity="0.1" d="M139.49 145.296L139.972 146.1L140.937 147.708L141.259 148.834L140.615 149.799L141.42 151.729L141.741 152.855L141.098 153.499L142.385 154.464" fill="black"/>
  <path opacity="0.1" d="M163.133 138.219V139.506L162.329 141.597L161.846 142.722L162.65 144.17L162.972 145.135L164.259 145.617L164.741 146.422V148.352" fill="black"/>
  <path opacity="0.1" d="M171.336 139.506L170.049 140.31C170.049 140.31 169.406 140.631 169.406 140.792V142.079" fill="black"/>
  <path opacity="0.1" d="M165.545 135.002L165.867 136.61L165.545 137.736" fill="black"/>
  <path opacity="0.1" d="M166.832 149.478L165.867 150.925L164.741 151.89V152.534L165.385 153.338V154.303L164.902 155.268" fill="black"/>
  <path opacity="0.1" d="M157.664 122.135H156.056L154.769 123.261L152.678 124.387L151.713 125.191V125.513L149.622 126.638L148.979 127.764" fill="black"/>
  <path opacity="0.1" d="M140.294 124.869L138.846 127.764L138.364 128.89L137.238 130.338C137.238 130.338 136.434 131.785 136.273 131.946C135.862 132.151 135.431 132.313 134.986 132.429L136.594 134.037" fill="black"/>
  <path opacity="0.1" d="M133.86 135.967L133.538 138.058L133.86 139.345V141.597L132.895 145.778L133.86 146.904L134.986 148.352" fill="black"/>
  <path opacity="0.1" d="M136.273 136.932L137.238 137.415L137.881 139.506L139.168 139.184L139.811 140.31" fill="black"/>
  <path opacity="0.1" d="M153.965 157.841L156.538 157.52L157.664 156.394H159.273" fill="black"/>
  <path opacity="0.1" d="M138.364 154.464L139.329 155.59L140.937 156.072L142.063 156.394L142.385 158.163" fill="black"/>
  <path opacity="0.1" d="M157.343 148.995L158.469 148.191L158.951 146.904L159.916 146.743L160.399 145.135" fill="black"/>
  <path d="M114.808 193.161C114.808 193.161 108.808 211.161 115.808 211.161C122.808 211.161 135.808 200.161 136.808 191.161C137.808 182.161 155.808 148.161 142.808 151.161C129.808 154.161 123.808 179.161 123.808 179.161L114.808 193.161Z" fill="#FFD7D7"/>
  <path d="M257.808 194.161L264.055 204.601C264.055 204.601 266.808 224.161 252.808 224.161C238.808 224.161 218.808 205.161 218.808 205.161C218.808 205.161 208.808 201.161 202.808 202.161C196.808 203.161 163.808 202.161 177.808 185.161C191.808 168.161 215.808 185.161 215.808 185.161L240.808 197.161L253.808 190.161L257.808 194.161Z" fill="#FFD7D7"/>
  </svg>
  